<svg xmlns="http://www.w3.org/2000/svg" width="658.08" height="52" viewBox="0 0 658.08 52">
    <path id="パス_4094" data-name="パス 4094" d="M55.92-.96q.32,0,.32.48T55.92,0Q54.4,0,51.2-.16T46.56-.32q-1.76,0-4.48.16Q39.52,0,38.16,0q-.32,0-.32-.48t.32-.48a12.191,12.191,0,0,0,4.32-.56,1.956,1.956,0,0,0,1.36-1.92A9.645,9.645,0,0,0,42.8-6.88L35.68-22H16.64L11.6-10.16a12.3,12.3,0,0,0-1.12,4.4,3.926,3.926,0,0,0,1.96,3.64A11.8,11.8,0,0,0,18.32-.96q.4,0,.4.48t-.4.48q-1.44,0-4.16-.16Q11.12-.32,8.88-.32q-2.08,0-4.8.16Q1.68,0,.08,0q-.4,0-.4-.48t.4-.48a7.923,7.923,0,0,0,3.8-.84A8.657,8.657,0,0,0,6.84-4.76a38.836,38.836,0,0,0,3.08-6.12L26.8-50.72a.623.623,0,0,1,.56-.24q.4,0,.48.24L46.72-10.96Q49.44-5.04,51.36-3A6.055,6.055,0,0,0,55.92-.96ZM17.28-23.6H34.96L25.6-43.36ZM124.64-50q.24,0,.24.48t-.24.48A7.734,7.734,0,0,0,120-47.6a11.143,11.143,0,0,0-3.44,4.88L99.52-.08q-.08.32-.88.32a1.039,1.039,0,0,1-.88-.32L87.36-22.72,78.32-.08q-.08.32-.88.32a1.039,1.039,0,0,1-.88-.32L56.64-43.36a12.952,12.952,0,0,0-2.88-4.44,5.807,5.807,0,0,0-3.92-1.24q-.24,0-.24-.48t.24-.48l3.04.08q2.24.16,3.6.16,2.88,0,6.24-.16L66-50q.24,0,.24.48t-.24.48a8.587,8.587,0,0,0-3.56.56,1.964,1.964,0,0,0-1.16,1.92,6.948,6.948,0,0,0,.8,2.88L79.12-7.12l7.2-17.84-8.48-18.4a13.351,13.351,0,0,0-2.8-4.36,5.346,5.346,0,0,0-3.76-1.32q-.24,0-.24-.48t.24-.48l2.96.08q2.24.16,3.44.16,2.32,0,4.72-.16L84.64-50q.24,0,.24.48t-.24.48a6.415,6.415,0,0,0-2.12.24.934.934,0,0,0-.6.96,13.25,13.25,0,0,0,1.44,4.16L89.2-31.2l4.72-11.92a11.712,11.712,0,0,0,.88-3.6,2,2,0,0,0-.8-1.76,4.552,4.552,0,0,0-2.56-.56q-.24,0-.24-.48t.24-.48l1.84.08q1.6.16,3.36.16,1.6,0,3.68-.16L103.6-50q.16,0,.16.48t-.16.48a7.661,7.661,0,0,0-4.64,1.4,10.7,10.7,0,0,0-3.28,4.92L90.24-29.04,100.4-7.12l14.32-35.84a8.21,8.21,0,0,0,.64-2.8,2.648,2.648,0,0,0-1.44-2.48,9.814,9.814,0,0,0-4.56-.8q-.24,0-.24-.48t.24-.48l3.36.08q2.56.16,4.8.16,1.68,0,3.76-.16ZM162.4-11.92q0-.16.32-.16a1.175,1.175,0,0,1,.44.08q.2.08.2.24a74.654,74.654,0,0,0-.72,10.56,1.266,1.266,0,0,1-.28.92,1.4,1.4,0,0,1-1,.28H127.84q-.16,0-.16-.48t.16-.48a17.7,17.7,0,0,0,4.44-.4,2.812,2.812,0,0,0,1.92-1.56,9.181,9.181,0,0,0,.52-3.56V-43.52a8.865,8.865,0,0,0-.52-3.52,2.955,2.955,0,0,0-1.92-1.56,16.155,16.155,0,0,0-4.44-.44q-.16,0-.16-.48t.16-.48H160a.636.636,0,0,1,.72.72l.16,9.84q0,.24-.4.28t-.48-.2a9.85,9.85,0,0,0-2.56-6.6,8.248,8.248,0,0,0-6.16-2.36H146.4a14.087,14.087,0,0,0-4.12.44,2.96,2.96,0,0,0-1.84,1.52,7.777,7.777,0,0,0-.52,3.24v16.24h9.76q3.84,0,5.48-1.28t1.64-4.32q0-.16.48-.16t.48.16L157.68-26q0,2.32.08,3.52l.08,3.84q0,.16-.48.16t-.48-.16q0-3.52-1.72-5.04t-5.72-1.52h-9.52V-6.8a8.315,8.315,0,0,0,.48,3.28,2.7,2.7,0,0,0,1.76,1.44,14.551,14.551,0,0,0,4,.4h6.4a8.424,8.424,0,0,0,6.4-2.72A14.516,14.516,0,0,0,162.4-11.92Zm16.56-28.72a9.7,9.7,0,0,0,1.52,5.44,14.334,14.334,0,0,0,3.72,3.88q2.2,1.56,6.04,3.88,4.24,2.56,6.52,4.24a15.534,15.534,0,0,1,3.92,4.28,11.38,11.38,0,0,1,1.64,6.2,13.015,13.015,0,0,1-1.92,6.96,13.119,13.119,0,0,1-5.64,4.92,20.312,20.312,0,0,1-8.92,1.8,23.122,23.122,0,0,1-11.28-2.8,1.149,1.149,0,0,1-.52-.56,4.506,4.506,0,0,1-.2-.96L172.8-14.24q-.08-.32.36-.4t.52.24a22.947,22.947,0,0,0,4.76,9.92,11.444,11.444,0,0,0,9.24,4.16,10.5,10.5,0,0,0,6.76-2.2q2.76-2.2,2.76-7a11.807,11.807,0,0,0-1.6-6.24,15.347,15.347,0,0,0-3.88-4.36,68.865,68.865,0,0,0-6.2-4.04,69.608,69.608,0,0,1-6.04-4,14.706,14.706,0,0,1-3.72-4.24,11.532,11.532,0,0,1-1.52-6,11.111,11.111,0,0,1,2.12-6.84,12.844,12.844,0,0,1,5.52-4.24,18.827,18.827,0,0,1,7.24-1.4,24.3,24.3,0,0,1,9.36,1.92q1.2.4,1.2,1.36l.56,9.2q0,.32-.4.32a.429.429,0,0,1-.48-.32,16.38,16.38,0,0,0-3.44-7.72q-2.8-3.56-8.08-3.56-4.48,0-6.68,2.6A9.627,9.627,0,0,0,178.96-40.64ZM235.92.96a25.23,25.23,0,0,1-13.24-3.48,23.836,23.836,0,0,1-8.96-9.44,27.322,27.322,0,0,1-3.16-13,23.814,23.814,0,0,1,4.16-14.12,26.068,26.068,0,0,1,10.68-8.84,31.917,31.917,0,0,1,13.32-2.96,24.889,24.889,0,0,1,13.36,3.56,24.128,24.128,0,0,1,8.84,9.4A26.2,26.2,0,0,1,264-25.52a24.524,24.524,0,0,1-3.84,13.36,27.589,27.589,0,0,1-10.28,9.6A28.642,28.642,0,0,1,235.92.96Zm2.8-1.68a18.548,18.548,0,0,0,9.8-2.64,18.156,18.156,0,0,0,6.88-7.76,27.265,27.265,0,0,0,2.52-12.16,30.539,30.539,0,0,0-2.8-13.36,21.787,21.787,0,0,0-7.88-9.12,21.415,21.415,0,0,0-11.88-3.28q-8.8,0-13.76,5.68t-4.96,15.6a32.953,32.953,0,0,0,2.8,13.72,23.46,23.46,0,0,0,7.84,9.76A19.345,19.345,0,0,0,238.72-.72Zm94.16-.24q.24,0,.24.48t-.24.48q-2.48,0-3.92-.08l-5.52-.08-5.12.08q-1.28.08-3.6.08-.16,0-.16-.48t.16-.48a13.714,13.714,0,0,0,4.04-.44,2.663,2.663,0,0,0,1.76-1.56,8.735,8.735,0,0,0,.28-3.52l-1.44-36.4L301.12-.56a.645.645,0,0,1-.64.32,1,1,0,0,1-.72-.32L280.08-42.4l-.72,33.68q-.08,4.24,1.44,6t5.36,1.76q.16,0,.16.48t-.16.48q-2.24,0-3.44-.08L278.4-.16l-4.16.08q-1.12.08-3.2.08-.16,0-.16-.48t.16-.48q3.36,0,4.84-1.8t1.56-5.96l.72-37.12a7.757,7.757,0,0,0-6.56-3.2q-.16,0-.16-.48t.16-.48l2.96.08q.8.08,2.24.08t2.44-.08q1-.08,1.56-.08a2.208,2.208,0,0,1,1.72.76,17.324,17.324,0,0,1,1.96,3.4l17.84,37.6L319.76-48q.88-2,2.4-2,.4,0,1.16.08t2.04.08l3.76-.08Q330-50,331.76-50q.24,0,.24.48t-.24.48q-4,0-5.72,1.16t-1.64,4.36L326-6.48a9.91,9.91,0,0,0,.6,3.6,2.818,2.818,0,0,0,1.88,1.52A17.2,17.2,0,0,0,332.88-.96ZM372.8-11.92q0-.16.32-.16a1.174,1.174,0,0,1,.44.08q.2.08.2.24a74.652,74.652,0,0,0-.72,10.56,1.266,1.266,0,0,1-.28.92,1.4,1.4,0,0,1-1,.28H338.24q-.16,0-.16-.48t.16-.48a17.7,17.7,0,0,0,4.44-.4,2.812,2.812,0,0,0,1.92-1.56,9.181,9.181,0,0,0,.52-3.56V-43.52a8.864,8.864,0,0,0-.52-3.52,2.955,2.955,0,0,0-1.92-1.56,16.155,16.155,0,0,0-4.44-.44q-.16,0-.16-.48t.16-.48H370.4a.636.636,0,0,1,.72.72l.16,9.84q0,.24-.4.28t-.48-.2a9.85,9.85,0,0,0-2.56-6.6,8.248,8.248,0,0,0-6.16-2.36H356.8a14.087,14.087,0,0,0-4.12.44,2.96,2.96,0,0,0-1.84,1.52,7.777,7.777,0,0,0-.52,3.24v16.24h9.76q3.84,0,5.48-1.28t1.64-4.32q0-.16.48-.16t.48.16L368.08-26q0,2.32.08,3.52l.08,3.84q0,.16-.48.16t-.48-.16q0-3.52-1.72-5.04t-5.72-1.52h-9.52V-6.8a8.315,8.315,0,0,0,.48,3.28,2.7,2.7,0,0,0,1.76,1.44,14.551,14.551,0,0,0,4,.4h6.4a8.424,8.424,0,0,0,6.4-2.72A14.516,14.516,0,0,0,372.8-11.92Zm56.56-38.96a42.23,42.23,0,0,1,8.48.72,27.44,27.44,0,0,1,6.88,2.48q.56.32.64.56a10.907,10.907,0,0,1,.24,1.2l.96,9.52q0,.24-.44.28t-.52-.2q-3.68-13.36-16.48-13.36a23.229,23.229,0,0,0-11.84,2.96,20.032,20.032,0,0,0-7.92,8.44,27.68,27.68,0,0,0-2.8,12.76,26.779,26.779,0,0,0,3.08,12.76,24.035,24.035,0,0,0,8.32,9.16,20.712,20.712,0,0,0,11.4,3.36q6.56,0,10.64-3.2t6.24-9.76q0-.16.4-.16.56,0,.56.24l-.8,8.8a3.17,3.17,0,0,1-.24,1.2,2.351,2.351,0,0,1-.64.56,36.021,36.021,0,0,1-7.8,2.8,39.191,39.191,0,0,1-8.36.8,32.923,32.923,0,0,1-15-3.32,24.882,24.882,0,0,1-10.28-9.32,25.783,25.783,0,0,1-3.68-13.76,23.941,23.941,0,0,1,3.76-13.32,25.089,25.089,0,0,1,10.36-9A33.576,33.576,0,0,1,429.36-50.88ZM480.64.96A25.23,25.23,0,0,1,467.4-2.52a23.836,23.836,0,0,1-8.96-9.44,27.322,27.322,0,0,1-3.16-13,23.814,23.814,0,0,1,4.16-14.12,26.068,26.068,0,0,1,10.68-8.84,31.917,31.917,0,0,1,13.32-2.96,24.889,24.889,0,0,1,13.36,3.56,24.128,24.128,0,0,1,8.84,9.4,26.2,26.2,0,0,1,3.08,12.4,24.525,24.525,0,0,1-3.84,13.36,27.589,27.589,0,0,1-10.28,9.6A28.642,28.642,0,0,1,480.64.96Zm2.8-1.68a18.548,18.548,0,0,0,9.8-2.64,18.157,18.157,0,0,0,6.88-7.76,27.265,27.265,0,0,0,2.52-12.16,30.539,30.539,0,0,0-2.8-13.36,21.788,21.788,0,0,0-7.88-9.12,21.415,21.415,0,0,0-11.88-3.28q-8.8,0-13.76,5.68t-4.96,15.6a32.953,32.953,0,0,0,2.8,13.72A23.46,23.46,0,0,0,472-4.28,19.345,19.345,0,0,0,483.44-.72Zm40.8-39.92a9.7,9.7,0,0,0,1.52,5.44,14.334,14.334,0,0,0,3.72,3.88q2.2,1.56,6.04,3.88,4.24,2.56,6.52,4.24a15.535,15.535,0,0,1,3.92,4.28,11.38,11.38,0,0,1,1.64,6.2,13.015,13.015,0,0,1-1.92,6.96,13.119,13.119,0,0,1-5.64,4.92,20.313,20.313,0,0,1-8.92,1.8,23.122,23.122,0,0,1-11.28-2.8,1.149,1.149,0,0,1-.52-.56,4.506,4.506,0,0,1-.2-.96l-1.04-10.88q-.08-.32.36-.4t.52.24a22.947,22.947,0,0,0,4.76,9.92,11.444,11.444,0,0,0,9.24,4.16,10.5,10.5,0,0,0,6.76-2.2q2.76-2.2,2.76-7a11.807,11.807,0,0,0-1.6-6.24A15.346,15.346,0,0,0,537-20.12a68.857,68.857,0,0,0-6.2-4.04,69.607,69.607,0,0,1-6.04-4,14.7,14.7,0,0,1-3.72-4.24,11.532,11.532,0,0,1-1.52-6,11.111,11.111,0,0,1,2.12-6.84,12.844,12.844,0,0,1,5.52-4.24,18.827,18.827,0,0,1,7.24-1.4,24.3,24.3,0,0,1,9.36,1.92q1.2.4,1.2,1.36l.56,9.2q0,.32-.4.32a.429.429,0,0,1-.48-.32,16.38,16.38,0,0,0-3.44-7.72q-2.8-3.56-8.08-3.56-4.48,0-6.68,2.6A9.627,9.627,0,0,0,524.24-40.64ZM616.88-.96q.24,0,.24.48t-.24.48q-2.48,0-3.92-.08l-5.52-.08-5.12.08q-1.28.08-3.6.08-.16,0-.16-.48t.16-.48a13.714,13.714,0,0,0,4.04-.44,2.663,2.663,0,0,0,1.76-1.56,8.735,8.735,0,0,0,.28-3.52l-1.44-36.4L585.12-.56a.645.645,0,0,1-.64.32,1,1,0,0,1-.72-.32L564.08-42.4l-.72,33.68q-.08,4.24,1.44,6t5.36,1.76q.16,0,.16.48t-.16.48q-2.24,0-3.44-.08L562.4-.16l-4.16.08q-1.12.08-3.2.08-.16,0-.16-.48t.16-.48q3.36,0,4.84-1.8t1.56-5.96l.72-37.12a7.757,7.757,0,0,0-6.56-3.2q-.16,0-.16-.48t.16-.48l2.96.08q.8.08,2.24.08t2.44-.08q1-.08,1.56-.08a2.208,2.208,0,0,1,1.72.76,17.322,17.322,0,0,1,1.96,3.4l17.84,37.6L603.76-48q.88-2,2.4-2,.4,0,1.16.08t2.04.08l3.76-.08Q614-50,615.76-50q.24,0,.24.48t-.24.48q-4,0-5.72,1.16t-1.64,4.36L610-6.48a9.908,9.908,0,0,0,.6,3.6,2.818,2.818,0,0,0,1.88,1.52A17.2,17.2,0,0,0,616.88-.96ZM656.8-11.92q0-.16.32-.16a1.175,1.175,0,0,1,.44.08q.2.08.2.24a74.647,74.647,0,0,0-.72,10.56,1.266,1.266,0,0,1-.28.92,1.4,1.4,0,0,1-1,.28H622.24q-.16,0-.16-.48t.16-.48a17.7,17.7,0,0,0,4.44-.4,2.812,2.812,0,0,0,1.92-1.56,9.181,9.181,0,0,0,.52-3.56V-43.52a8.864,8.864,0,0,0-.52-3.52,2.955,2.955,0,0,0-1.92-1.56,16.155,16.155,0,0,0-4.44-.44q-.16,0-.16-.48t.16-.48H654.4a.636.636,0,0,1,.72.72l.16,9.84q0,.24-.4.28t-.48-.2a9.85,9.85,0,0,0-2.56-6.6,8.248,8.248,0,0,0-6.16-2.36H640.8a14.087,14.087,0,0,0-4.12.44,2.96,2.96,0,0,0-1.84,1.52,7.778,7.778,0,0,0-.52,3.24v16.24h9.76q3.84,0,5.48-1.28t1.64-4.32q0-.16.48-.16t.48.16L652.08-26q0,2.32.08,3.52l.08,3.84q0,.16-.48.16t-.48-.16q0-3.52-1.72-5.04t-5.72-1.52h-9.52V-6.8a8.315,8.315,0,0,0,.48,3.28,2.7,2.7,0,0,0,1.76,1.44,14.551,14.551,0,0,0,4,.4h6.4a8.424,8.424,0,0,0,6.4-2.72A14.516,14.516,0,0,0,656.8-11.92Z" transform="translate(0.32 50.96)" fill="#2d1d10" />
</svg>