<svg xmlns="http://www.w3.org/2000/svg" width="230.328" height="18.2" viewBox="0 0 230.328 18.2">
    <path id="パス_4094" data-name="パス 4094" d="M19.572-.336q.112,0,.112.168T19.572,0Q19.04,0,17.92-.056T16.3-.112q-.616,0-1.568.056Q13.832,0,13.356,0q-.112,0-.112-.168t.112-.168a4.267,4.267,0,0,0,1.512-.2.685.685,0,0,0,.476-.672,3.376,3.376,0,0,0-.364-1.2L12.488-7.7H5.824L4.06-3.556a4.3,4.3,0,0,0-.392,1.54A1.374,1.374,0,0,0,4.354-.742a4.128,4.128,0,0,0,2.058.406q.14,0,.14.168T6.412,0q-.5,0-1.456-.056Q3.892-.112,3.108-.112q-.728,0-1.68.056Q.588,0,.028,0q-.14,0-.14-.168t.14-.168A2.773,2.773,0,0,0,1.358-.63,3.03,3.03,0,0,0,2.394-1.666,13.593,13.593,0,0,0,3.472-3.808L9.38-17.752a.218.218,0,0,1,.2-.084q.14,0,.168.084L16.352-3.836A11.336,11.336,0,0,0,17.976-1.05,2.119,2.119,0,0,0,19.572-.336ZM6.048-8.26h6.188L8.96-15.176ZM43.624-17.5q.084,0,.084.168t-.084.168a2.707,2.707,0,0,0-1.624.5,3.9,3.9,0,0,0-1.2,1.708L34.832-.028q-.028.112-.308.112a.364.364,0,0,1-.308-.112l-3.64-7.924L27.412-.028q-.028.112-.308.112A.364.364,0,0,1,26.8-.028L19.824-15.176a4.533,4.533,0,0,0-1.008-1.554,2.033,2.033,0,0,0-1.372-.434q-.084,0-.084-.168t.084-.168l1.064.028q.784.056,1.26.056,1.008,0,2.184-.056L23.1-17.5q.084,0,.084.168t-.084.168a3.005,3.005,0,0,0-1.246.2.687.687,0,0,0-.406.672,2.432,2.432,0,0,0,.28,1.008l5.964,12.8,2.52-6.244-2.968-6.44a4.673,4.673,0,0,0-.98-1.526,1.871,1.871,0,0,0-1.316-.462q-.084,0-.084-.168t.084-.168l1.036.028q.784.056,1.2.056.812,0,1.652-.056l.784-.028q.084,0,.084.168t-.084.168a2.245,2.245,0,0,0-.742.084.327.327,0,0,0-.21.336,4.637,4.637,0,0,0,.5,1.456L31.22-10.92l1.652-4.172a4.1,4.1,0,0,0,.308-1.26.7.7,0,0,0-.28-.616,1.593,1.593,0,0,0-.9-.2q-.084,0-.084-.168T32-17.5l.644.028q.56.056,1.176.056.56,0,1.288-.056L36.26-17.5q.056,0,.056.168t-.056.168a2.681,2.681,0,0,0-1.624.49,3.744,3.744,0,0,0-1.148,1.722l-1.9,4.788L35.14-2.492l5.012-12.544a2.873,2.873,0,0,0,.224-.98.927.927,0,0,0-.5-.868,3.435,3.435,0,0,0-1.6-.28q-.084,0-.084-.168t.084-.168l1.176.028q.9.056,1.68.056.588,0,1.316-.056ZM56.84-4.172q0-.056.112-.056a.411.411,0,0,1,.154.028q.07.028.07.084a26.128,26.128,0,0,0-.252,3.7.443.443,0,0,1-.1.322.49.49,0,0,1-.35.1H44.744q-.056,0-.056-.168t.056-.168A6.2,6.2,0,0,0,46.3-.476a.984.984,0,0,0,.672-.546,3.213,3.213,0,0,0,.182-1.246V-15.232a3.1,3.1,0,0,0-.182-1.232,1.034,1.034,0,0,0-.672-.546,5.654,5.654,0,0,0-1.554-.154q-.056,0-.056-.168t.056-.168H56a.223.223,0,0,1,.252.252l.056,3.444q0,.084-.14.1T56-13.776a3.447,3.447,0,0,0-.9-2.31,2.887,2.887,0,0,0-2.156-.826H51.24a4.93,4.93,0,0,0-1.442.154,1.036,1.036,0,0,0-.644.532,2.722,2.722,0,0,0-.182,1.134v5.684h3.416a3.167,3.167,0,0,0,1.918-.448,1.805,1.805,0,0,0,.574-1.512q0-.056.168-.056t.168.056L55.188-9.1q0,.812.028,1.232l.028,1.344q0,.056-.168.056t-.168-.056a2.251,2.251,0,0,0-.6-1.764,3.008,3.008,0,0,0-2-.532H48.972v6.44a2.91,2.91,0,0,0,.168,1.148.945.945,0,0,0,.616.5,5.093,5.093,0,0,0,1.4.14H53.4a2.948,2.948,0,0,0,2.24-.952A5.081,5.081,0,0,0,56.84-4.172Zm5.8-10.052a3.4,3.4,0,0,0,.532,1.9,5.017,5.017,0,0,0,1.3,1.358q.77.546,2.114,1.358,1.484.9,2.282,1.484a5.437,5.437,0,0,1,1.372,1.5,3.983,3.983,0,0,1,.574,2.17,4.555,4.555,0,0,1-.672,2.436A4.592,4.592,0,0,1,68.166-.294a7.109,7.109,0,0,1-3.122.63A8.093,8.093,0,0,1,61.1-.644a.4.4,0,0,1-.182-.2,1.577,1.577,0,0,1-.07-.336L60.48-4.984q-.028-.112.126-.14t.182.084a8.031,8.031,0,0,0,1.666,3.472A4.005,4.005,0,0,0,65.688-.112a3.676,3.676,0,0,0,2.366-.77,2.946,2.946,0,0,0,.966-2.45,4.132,4.132,0,0,0-.56-2.184A5.371,5.371,0,0,0,67.1-7.042a24.1,24.1,0,0,0-2.17-1.414,24.362,24.362,0,0,1-2.114-1.4,5.147,5.147,0,0,1-1.3-1.484,4.036,4.036,0,0,1-.532-2.1,3.889,3.889,0,0,1,.742-2.394,4.5,4.5,0,0,1,1.932-1.484,6.589,6.589,0,0,1,2.534-.49,8.5,8.5,0,0,1,3.276.672q.42.14.42.476l.2,3.22q0,.112-.14.112a.15.15,0,0,1-.168-.112,5.733,5.733,0,0,0-1.2-2.7,3.384,3.384,0,0,0-2.828-1.246,2.892,2.892,0,0,0-2.338.91A3.37,3.37,0,0,0,62.636-14.224ZM82.572.336A8.83,8.83,0,0,1,77.938-.882a8.343,8.343,0,0,1-3.136-3.3A9.563,9.563,0,0,1,73.7-8.736a8.335,8.335,0,0,1,1.456-4.942,9.124,9.124,0,0,1,3.738-3.094,11.171,11.171,0,0,1,4.662-1.036,8.711,8.711,0,0,1,4.676,1.246,8.445,8.445,0,0,1,3.094,3.29A9.171,9.171,0,0,1,92.4-8.932a8.584,8.584,0,0,1-1.344,4.676,9.656,9.656,0,0,1-3.6,3.36A10.025,10.025,0,0,1,82.572.336Zm.98-.588a6.492,6.492,0,0,0,3.43-.924A6.355,6.355,0,0,0,89.39-3.892a9.543,9.543,0,0,0,.882-4.256,10.689,10.689,0,0,0-.98-4.676,7.626,7.626,0,0,0-2.758-3.192,7.5,7.5,0,0,0-4.158-1.148,6.057,6.057,0,0,0-4.816,1.988,8.02,8.02,0,0,0-1.736,5.46,11.534,11.534,0,0,0,.98,4.8A8.211,8.211,0,0,0,79.548-1.5,6.771,6.771,0,0,0,83.552-.252Zm32.956-.084q.084,0,.084.168T116.508,0q-.868,0-1.372-.028L113.2-.056l-1.792.028q-.448.028-1.26.028-.056,0-.056-.168t.056-.168a4.8,4.8,0,0,0,1.414-.154.932.932,0,0,0,.616-.546,3.057,3.057,0,0,0,.1-1.232l-.5-12.74L105.392-.2a.226.226,0,0,1-.224.112.348.348,0,0,1-.252-.112L98.028-14.84,97.776-3.052a3.135,3.135,0,0,0,.5,2.1,2.384,2.384,0,0,0,1.876.616q.056,0,.056.168T100.156,0q-.784,0-1.2-.028L97.44-.056l-1.456.028Q95.592,0,94.864,0q-.056,0-.056-.168t.056-.168a2.073,2.073,0,0,0,1.694-.63A3.409,3.409,0,0,0,97.1-3.052l.252-12.992a2.715,2.715,0,0,0-2.3-1.12q-.056,0-.056-.168t.056-.168l1.036.028q.28.028.784.028t.854-.028q.35-.028.546-.028a.773.773,0,0,1,.6.266,6.063,6.063,0,0,1,.686,1.19l6.244,13.16,6.1-13.916q.308-.7.84-.7.14,0,.406.028t.714.028l1.316-.028q.308-.028.924-.028.084,0,.084.168t-.084.168a3.712,3.712,0,0,0-2,.406,1.66,1.66,0,0,0-.574,1.526l.56,12.964a3.468,3.468,0,0,0,.21,1.26.986.986,0,0,0,.658.532A6.019,6.019,0,0,0,116.508-.336ZM130.48-4.172q0-.056.112-.056a.411.411,0,0,1,.154.028q.07.028.07.084a26.129,26.129,0,0,0-.252,3.7.443.443,0,0,1-.1.322.49.49,0,0,1-.35.1H118.384q-.056,0-.056-.168t.056-.168a6.2,6.2,0,0,0,1.554-.14.984.984,0,0,0,.672-.546,3.213,3.213,0,0,0,.182-1.246V-15.232a3.1,3.1,0,0,0-.182-1.232,1.034,1.034,0,0,0-.672-.546,5.654,5.654,0,0,0-1.554-.154q-.056,0-.056-.168t.056-.168H129.64a.223.223,0,0,1,.252.252l.056,3.444q0,.084-.14.1t-.168-.07a3.447,3.447,0,0,0-.9-2.31,2.887,2.887,0,0,0-2.156-.826H124.88a4.93,4.93,0,0,0-1.442.154,1.036,1.036,0,0,0-.644.532,2.722,2.722,0,0,0-.182,1.134v5.684h3.416a3.167,3.167,0,0,0,1.918-.448,1.805,1.805,0,0,0,.574-1.512q0-.056.168-.056t.168.056L128.828-9.1q0,.812.028,1.232l.028,1.344q0,.056-.168.056t-.168-.056a2.251,2.251,0,0,0-.6-1.764,3.008,3.008,0,0,0-2-.532h-3.332v6.44a2.91,2.91,0,0,0,.168,1.148.945.945,0,0,0,.616.5,5.093,5.093,0,0,0,1.4.14h2.24a2.948,2.948,0,0,0,2.24-.952A5.081,5.081,0,0,0,130.48-4.172Zm19.8-13.636a14.78,14.78,0,0,1,2.968.252,9.6,9.6,0,0,1,2.408.868q.2.112.224.2a3.819,3.819,0,0,1,.084.42l.336,3.332q0,.084-.154.1t-.182-.07q-1.288-4.676-5.768-4.676a8.13,8.13,0,0,0-4.144,1.036,7.011,7.011,0,0,0-2.772,2.954,9.688,9.688,0,0,0-.98,4.466,9.373,9.373,0,0,0,1.078,4.466,8.412,8.412,0,0,0,2.912,3.206,7.249,7.249,0,0,0,3.99,1.176A5.859,5.859,0,0,0,154-1.2a6.962,6.962,0,0,0,2.184-3.416q0-.056.14-.056.2,0,.2.084l-.28,3.08a1.109,1.109,0,0,1-.084.42.823.823,0,0,1-.224.2,12.607,12.607,0,0,1-2.73.98,13.717,13.717,0,0,1-2.926.28A11.523,11.523,0,0,1,145.026-.8a8.709,8.709,0,0,1-3.6-3.262,9.024,9.024,0,0,1-1.288-4.816,8.379,8.379,0,0,1,1.316-4.662,8.781,8.781,0,0,1,3.626-3.15A11.752,11.752,0,0,1,150.276-17.808ZM168.224.336A8.83,8.83,0,0,1,163.59-.882a8.343,8.343,0,0,1-3.136-3.3,9.563,9.563,0,0,1-1.106-4.55,8.335,8.335,0,0,1,1.456-4.942,9.124,9.124,0,0,1,3.738-3.094,11.171,11.171,0,0,1,4.662-1.036,8.711,8.711,0,0,1,4.676,1.246,8.445,8.445,0,0,1,3.094,3.29,9.171,9.171,0,0,1,1.078,4.34,8.583,8.583,0,0,1-1.344,4.676,9.656,9.656,0,0,1-3.6,3.36A10.025,10.025,0,0,1,168.224.336Zm.98-.588a6.492,6.492,0,0,0,3.43-.924,6.355,6.355,0,0,0,2.408-2.716,9.543,9.543,0,0,0,.882-4.256,10.689,10.689,0,0,0-.98-4.676,7.626,7.626,0,0,0-2.758-3.192,7.5,7.5,0,0,0-4.158-1.148,6.057,6.057,0,0,0-4.816,1.988,8.02,8.02,0,0,0-1.736,5.46,11.534,11.534,0,0,0,.98,4.8A8.211,8.211,0,0,0,165.2-1.5,6.771,6.771,0,0,0,169.2-.252Zm14.28-13.972a3.4,3.4,0,0,0,.532,1.9,5.017,5.017,0,0,0,1.3,1.358q.77.546,2.114,1.358,1.484.9,2.282,1.484a5.437,5.437,0,0,1,1.372,1.5,3.983,3.983,0,0,1,.574,2.17,4.555,4.555,0,0,1-.672,2.436,4.592,4.592,0,0,1-1.974,1.722,7.109,7.109,0,0,1-3.122.63,8.093,8.093,0,0,1-3.948-.98.4.4,0,0,1-.182-.2,1.577,1.577,0,0,1-.07-.336l-.364-3.808q-.028-.112.126-.14t.182.084A8.031,8.031,0,0,0,183.3-1.568a4.005,4.005,0,0,0,3.234,1.456,3.676,3.676,0,0,0,2.366-.77,2.946,2.946,0,0,0,.966-2.45,4.132,4.132,0,0,0-.56-2.184,5.371,5.371,0,0,0-1.358-1.526,24.1,24.1,0,0,0-2.17-1.414,24.358,24.358,0,0,1-2.114-1.4,5.147,5.147,0,0,1-1.3-1.484,4.036,4.036,0,0,1-.532-2.1,3.889,3.889,0,0,1,.742-2.394,4.5,4.5,0,0,1,1.932-1.484,6.589,6.589,0,0,1,2.534-.49,8.5,8.5,0,0,1,3.276.672q.42.14.42.476l.2,3.22q0,.112-.14.112a.15.15,0,0,1-.168-.112,5.733,5.733,0,0,0-1.2-2.7,3.384,3.384,0,0,0-2.828-1.246,2.892,2.892,0,0,0-2.338.91A3.37,3.37,0,0,0,183.484-14.224ZM215.908-.336q.084,0,.084.168T215.908,0q-.868,0-1.372-.028L212.6-.056l-1.792.028q-.448.028-1.26.028-.056,0-.056-.168t.056-.168a4.8,4.8,0,0,0,1.414-.154.932.932,0,0,0,.616-.546,3.057,3.057,0,0,0,.1-1.232l-.5-12.74L204.792-.2a.226.226,0,0,1-.224.112.348.348,0,0,1-.252-.112L197.428-14.84l-.252,11.788a3.135,3.135,0,0,0,.5,2.1,2.384,2.384,0,0,0,1.876.616q.056,0,.056.168T199.556,0q-.784,0-1.2-.028L196.84-.056l-1.456.028q-.392.028-1.12.028-.056,0-.056-.168t.056-.168a2.073,2.073,0,0,0,1.694-.63,3.409,3.409,0,0,0,.546-2.086l.252-12.992a2.715,2.715,0,0,0-2.3-1.12q-.056,0-.056-.168t.056-.168l1.036.028q.28.028.784.028t.854-.028q.35-.028.546-.028a.773.773,0,0,1,.6.266,6.062,6.062,0,0,1,.686,1.19l6.244,13.16,6.1-13.916q.308-.7.84-.7.14,0,.406.028t.714.028l1.316-.028q.308-.028.924-.028.084,0,.084.168t-.084.168a3.712,3.712,0,0,0-2,.406,1.66,1.66,0,0,0-.574,1.526l.56,12.964a3.468,3.468,0,0,0,.21,1.26.986.986,0,0,0,.658.532A6.019,6.019,0,0,0,215.908-.336ZM229.88-4.172q0-.056.112-.056a.411.411,0,0,1,.154.028q.07.028.07.084a26.129,26.129,0,0,0-.252,3.7.443.443,0,0,1-.1.322.49.49,0,0,1-.35.1H217.784q-.056,0-.056-.168t.056-.168a6.2,6.2,0,0,0,1.554-.14.984.984,0,0,0,.672-.546,3.213,3.213,0,0,0,.182-1.246V-15.232a3.1,3.1,0,0,0-.182-1.232,1.034,1.034,0,0,0-.672-.546,5.654,5.654,0,0,0-1.554-.154q-.056,0-.056-.168t.056-.168H229.04a.223.223,0,0,1,.252.252l.056,3.444q0,.084-.14.1t-.168-.07a3.447,3.447,0,0,0-.9-2.31,2.887,2.887,0,0,0-2.156-.826H224.28a4.93,4.93,0,0,0-1.442.154,1.036,1.036,0,0,0-.644.532,2.722,2.722,0,0,0-.182,1.134v5.684h3.416a3.167,3.167,0,0,0,1.918-.448,1.806,1.806,0,0,0,.574-1.512q0-.056.168-.056t.168.056L228.228-9.1q0,.812.028,1.232l.028,1.344q0,.056-.168.056t-.168-.056a2.251,2.251,0,0,0-.6-1.764,3.008,3.008,0,0,0-2-.532h-3.332v6.44a2.91,2.91,0,0,0,.168,1.148.945.945,0,0,0,.616.5,5.093,5.093,0,0,0,1.4.14h2.24a2.948,2.948,0,0,0,2.24-.952A5.081,5.081,0,0,0,229.88-4.172Z" transform="translate(0.112 17.836)" fill="#2d1d10" />
</svg>